<?xml version="1.0" encoding="UTF-8"?>
<svg version="1.1" viewBox="0 0 835.42 461.52" xmlns="http://www.w3.org/2000/svg">
 <!-- Generator: Adobe Illustrator 29.1.0, SVG Export Plug-In . SVG Version: 2.1.0 Build 142)  -->
 <defs>
  <style>.st0, .st1, .st2, .st3, .st4, .st5, .st6, .st7, .st8 {
        fill: none;
      }

      .st9 {
        fill: #9c9750;
      }

      .st1, .st2, .st3, .st4, .st5, .st10, .st8 {
        stroke: #231f20;
      }

      .st1, .st4 {
        stroke-width: .2px;
      }

      .st1, .st6 {
        stroke-linecap: round;
        stroke-linejoin: round;
      }

      .st11 {
        fill: #231f20;
      }

      .st12 {
        fill: #f2c350;
      }

      .st2 {
        stroke-width: .6px;
      }

      .st3, .st6, .st10 {
        stroke-width: 1px;
      }

      .st5 {
        stroke-width: 1.4px;
      }

      .st13 {
        clip-path: url(#clippath-11);
      }

      .st14 {
        clip-path: url(#clippath-10);
      }

      .st15 {
        clip-path: url(#clippath-1);
      }

      .st16 {
        clip-path: url(#clippath-3);
      }

      .st17 {
        clip-path: url(#clippath-4);
      }

      .st18 {
        clip-path: url(#clippath-2);
      }

      .st19 {
        clip-path: url(#clippath-7);
      }

      .st20 {
        clip-path: url(#clippath-6);
      }

      .st21 {
        clip-path: url(#clippath-9);
      }

      .st22 {
        clip-path: url(#clippath-8);
      }

      .st23 {
        clip-path: url(#clippath-5);
      }

      .st6, .st7 {
        stroke: #fff;
      }

      .st24, .st10 {
        fill: #fff;
      }

      .st7 {
        stroke-width: .4px;
      }

      .st8 {
        stroke-width: 2.8px;
      }

      .st25 {
        clip-path: url(#clippath);
      }</style>
  <clipPath id="clippath">
   <rect class="st0" x="3" y="65.2" width="836.6" height="461.2"/>
  </clipPath>
  <clipPath id="clippath-1">
   <rect class="st0" x="3" y="65.2" width="836.6" height="461.2"/>
  </clipPath>
  <clipPath id="clippath-2">
   <rect class="st0" x="3" y="65.2" width="836.6" height="461.2"/>
  </clipPath>
  <clipPath id="clippath-3">
   <rect class="st0" x="3" y="65.2" width="836.6" height="461.2"/>
  </clipPath>
  <clipPath id="clippath-4">
   <rect class="st0" x="3" y="65.2" width="836.6" height="461.2"/>
  </clipPath>
  <clipPath id="clippath-5">
   <rect class="st0" x="3" y="65.2" width="836.6" height="461.2"/>
  </clipPath>
  <clipPath id="clippath-6">
   <rect class="st0" x="3" y="65.2" width="836.6" height="461.2"/>
  </clipPath>
  <clipPath id="clippath-7">
   <rect class="st0" x="3" y="65.2" width="836.6" height="461.2"/>
  </clipPath>
  <clipPath id="clippath-8">
   <rect class="st0" x="3" y="65.2" width="836.6" height="461.2"/>
  </clipPath>
  <clipPath id="clippath-9">
   <rect class="st0" x="3" y="65.2" width="836.6" height="461.2"/>
  </clipPath>
  <clipPath id="clippath-10">
   <rect class="st0" x="3" y="65.2" width="836.6" height="461.2"/>
  </clipPath>
  <clipPath id="clippath-11">
   <rect class="st0" x="3" y="65.2" width="836.6" height="461.2"/>
  </clipPath>
 </defs>
 <g class="st25" transform="translate(-4.084 -64.435)" clip-path="url(#clippath)">
  <path class="st12" d="m194.1 523.2c24.7-40 63.1-41 117.7-96 77.3-77.9 75.4-190.3 65.5-296.4-52.2 9.8-148.7-40.5-183.2-62.7-34.5 22.2-131 73.1-183.2 63.4-10 106-14.3 218.2 63 296.1 54.6 55 95.5 55.6 120.2 95.6"/>
  <path class="st8" d="m194.1 523.2c24.7-40 63.1-41 117.7-96 77.3-77.9 75.4-190.3 65.5-296.4-52.2 9.8-148.7-40.5-183.2-62.7-34.5 22.2-131 73.1-183.2 63.4-10 106-14.3 218.2 63 296.1 54.6 55 95.5 55.6 120.2 95.6"/>
  <path class="st24" d="m115.2 382.2c-46.2-8.3-90.2-37.4-96.6-136l12.1 16.8c2.6-6.7 5.2-12.6 7.8-19.3 8.1 101.3 58.9 119.7 102.9 121.3h7.9c17.7 0 34.3-2.3 45.2-2.1 10.6-0.2 26.6 2.1 44.3 2.2h7.9c43.9-1.6 95.1-19.8 103.3-121.4 2.6 6.7 5.2 12.6 7.7 19.3l12-16.8c-6.4 99.3-50.9 128.1-97.2 136.1l-36.9 3.3c-14 0.7-22.3-2.8-41.2-2.8-19.9 0-28.1 3.2-43 2.7l-36.3-3.3z"/>
  <path class="st3" d="m115.2 382.2c-46.2-8.3-90.2-37.4-96.6-136l12.1 16.8c2.6-6.7 5.2-12.6 7.8-19.3 8.1 101.3 58.9 119.7 102.9 121.3h7.9c17.7 0 34.3-2.3 45.2-2.1 10.6-0.2 26.6 2.1 44.3 2.2h7.9c43.9-1.6 95.1-19.8 103.3-121.4 2.6 6.7 5.2 12.6 7.7 19.3l12-16.8c-6.4 99.3-50.9 128.1-97.2 136.1l-36.9 3.3c-14 0.7-22.3-2.8-41.2-2.8-19.9 0-28.1 3.2-43 2.7l-36.3-3.3z"/>
  <path class="st11" d="m34.5 281.1 0.4 1.8c0.4 2.1 1.3 2.8 2.1 2.9v1.4c-1-0.1-2-0.8-2.5-1.9l-5 3.6-0.3-1.5 4.8-3.4-0.5-2.6-5.3 1.1-0.3-1.4 9.1-1.8v1.5l-2.5 0.5zm2.5 4.7h0.7c1.6-0.3 2-1.5 1.6-3.4l-0.4-2.1-1.9 0.4v-1.5l2.7-0.5 0.6 3.1c0.1 0.6 0.2 1.1 0.2 1.5v0.7c0 2.3-1.5 3-2.5 3.2h-0.9v-1.4z"/>
 </g>
 <polygon class="st11" transform="translate(-4.084 -64.435)" points="31.5 292.5 33 298.5 32 298.7 30.1 291.4 41.7 288.4 43.5 295.5 42.5 295.7 41 290.1 37.1 291.1 38.1 295.1 37 295.4 36 291.3"/>
 <polygon class="st11" transform="translate(-4.084 -64.435)" points="46.9 306.2 35.5 310 35.1 308.6 43.5 299.4 33.2 302.8 32.8 301.4 44.2 297.7 44.8 299.8 37.5 307.8 46.5 304.9"/>
 <g class="st15" transform="translate(-4.084 -64.435)" clip-path="url(#clippath-1)">
  <path class="st11" d="m42.6 311.5c-3.4 1.4-4.2 3.5-3.5 5.2 0.6 1.5 2.2 2.3 4.8 1.6v1.4c-2.7 0.5-4.9-0.5-5.7-2.6-1.1-2.6 0.2-5.3 3.8-6.9 0.7-0.3 1.3-0.5 1.9-0.6v1.4c-0.4 0.1-0.8 0.3-1.3 0.5m1.3 6.8c0.4-0.1 0.9-0.3 1.4-0.5 3.3-1.4 4.2-3.5 3.5-5.2-0.7-1.5-2.2-2.3-4.8-1.6v-1.4c2.8-0.6 4.9 0.5 5.8 2.6 1.1 2.5-0.2 5.3-3.9 6.9-0.7 0.2-1.3 0.5-1.9 0.6v-1.4z"/>
 </g>
 <polygon class="st11" transform="translate(-4.084 -64.435)" points="55.8 325.3 43.3 327.4 42.7 326.3 51.5 317.4 52.2 318.6 45 325.9 55.1 324.1"/>
 <path class="st11" d="m50.216 265.86-3.1 1 2 3.1 1.2-1.4v2.1l-3.7 4.5-0.7-1.2 2.5-3.1-2.3-3.7-3.8 1.1-0.8-1.2 8.9-2.4v1.3zm3.1-1-3.1 0.9v-1.3l3.2-0.9 1.1 1.7-4.3 5.3v-2.1l3.1-3.7z"/>
 <g class="st18" transform="translate(-4.084 -64.435)" clip-path="url(#clippath-2)">
  <path class="st11" d="m58.8 338.8v1.7c-0.1-0.2-0.3-0.4-0.5-0.7l-1.1-1.4-3.7 3 1.1 1.3c2 2.5 3.1 2.4 4.1 1.6h0.1v1.7c-1.1 0.5-2.7 0.4-4.5-1.9l-2.4-3 7-5.7v1.8l-0.8 0.7 0.8 1zm0 0c1.1 1.3 2.4 3.1 4 1.7s0.3-2.9-0.8-4.3l-0.9-1-2.3 1.9v-1.8l2.3-1.9 2.3 2.9c0.9 1.2 1.3 2.2 1.4 3 0 1.1-0.5 1.8-1 2.3-1 0.8-2.3 0.8-3.4 0 0.7 1.5 0.5 2.9-0.7 3.8-0.3 0.2-0.5 0.4-0.8 0.5v-1.7c0.9-0.8 1.2-1.8 0-3.7v-1.7z"/>
 </g>
 <polygon class="st11" transform="translate(-4.084 -64.435)" points="67.6 341.1 68.6 342.1 59.9 350.4 58.9 349.4"/>
 <polygon class="st11" transform="translate(-4.084 -64.435)" points="69.4 343.1 75.8 348.8 75.1 349.6 72.4 347.2 65.2 355.4 64.1 354.5 71.3 346.3 68.7 343.9"/>
 <g class="st16" transform="translate(-4.084 -64.435)" clip-path="url(#clippath-3)">
  <path class="st11" d="m78.7 360.9c-1.9 2.6-4.2 1.9-5.8 0.8-1.5-1.1-3-3.1-1.2-5.7l4.7-6.8 1.2 0.8-4.2 6c-1 1.6-2 3.1 0.2 4.6s3.4 0.1 4.5-1.4l4.2-6 1.2 0.8-4.7 6.8z"/>
  <path class="st11" d="m83.3 360.4 1.6 0.9c0.5 0.2 0.9 0.4 1.3 0.5v7.4l-1.5-0.7 0.4-5.9-2.3-1.3-2.5 4.8-1.2-0.6 5.6-10.6 1.6 0.8v1.2l-0.9-0.5-2.1 3.9zm2.9 1.4c1.5 0.5 2.3-0.1 2.7-0.9 0.7-1.5 0-2.5-1.6-3.4l-1-0.6v-1.2l1.2 0.6c2.4 1.3 3.1 2.6 3.1 3.7 0 0.7-0.2 1.2-0.4 1.5-0.7 1.3-2.1 1.8-3.7 1.5l-0.2 4.1v-5.4z"/>
  <path class="st11" d="m103 371.5c-1 3.1-3.5 3.1-5.3 2.5s-3.8-2.1-2.8-5.2l2.6-7.8 1.3 0.5-2.3 7c-0.6 1.8-1 3.5 1.5 4.4 2.5 0.8 3.3-0.8 3.8-2.6l2.3-7 1.4 0.4-2.6 7.8z"/>
 </g>
 <polygon class="st11" transform="translate(-4.084 -64.435)" points="106.6 364 115 365.9 114.7 366.9 111.3 366.1 108.8 376.8 107.4 376.4 109.8 365.8 106.4 365"/>
 <path class="st11" d="m156.82 304.46-1.5 6.4h1.8v1h-2.1l-1 4h-1.5l3.2-12.1h1.4v1.7zm0.3 6.3h1.8s-1.8-5.3-1.8-5.3v-1.8h0.7l4.4 11.8h-1.5l-1.4-3.7h-2.2z"/>
 <g class="st17" transform="translate(-4.084 -64.435)" clip-path="url(#clippath-4)">
  <path class="st11" d="m170.7 373.5c0.2 3.4 1.7 4.9 3.4 5v2c-0.1-0.3-0.2-0.6-0.3-1-3.3-0.3-4.4-3.6-4.5-5.9v-1.2c0.1-3.2 2-5.2 4.4-5.3h0.4v1h-0.3c-1.9 0-3.3 1.8-3.1 5.4m3.4 5.1h0.3c1.8-0.1 3.3-1.8 3.1-5.4-0.2-3.4-1.7-4.9-3.4-5v-1c2.6 0 4.6 2.2 4.8 5.9 0.1 2.3-0.5 5.7-3.8 6.4 0.3 1.5 1.5 1.5 2.3 1.4h0.9v1h-0.9c-1.5 0.1-2.8 0-3.4-1.4v-2z"/>
  <path class="st11" d="m192 374.7c0 3.2-2.2 4.1-4.1 4.2-1.9 0-4.3-0.6-4.4-3.8l-0.3-8.3h1.4s0.3 7.3 0.3 7.3c0 1.9 0.3 3.7 3 3.6 2.7 0 2.8-1.9 2.7-3.7l-0.2-7.4h1.4s0.3 8.2 0.3 8.2z"/>
 </g>
 <polygon class="st11" transform="translate(-4.084 -64.435)" points="198 378.5 198.2 366.5 196.8 366.5 196.6 378.5"/>
 <polygon class="st11" transform="translate(-4.084 -64.435)" points="204.2 377.6 209.9 377.9 209.9 379 202.8 378.6 203.4 366.6 204.8 366.7"/>
 <path class="st11" d="m214.02 304.86-1.8 5.3h1.8v1.2h-2.3c0-0.1-1.4 3.6-1.4 3.6h-1.4l4.5-11.8h0.6v1.8zm0.3-1-0.3 0.9v-1.7h1.4l3.1 12.3h-1.4l-1-4h-2.1v-1.2h1.8c0 0.1-1.5-6.3-1.5-6.3z"/>
 <polygon class="st11" transform="translate(-4.084 -64.435)" points="227.7 379 233.9 379.3 233.9 380.3 226.2 380 226.7 368 234 368.3 233.9 369.4 228.1 369.2 227.9 373.3 232.1 373.4 232 374.5 227.9 374.3"/>
 <g class="st23" transform="translate(-4.084 -64.435)" clip-path="url(#clippath-5)">
  <path class="st11" d="m286.2 371.8c0.7 2.8-0.8 3.8-2.3 4.2-1.2 0.3-2.5 0-3.2-1l1.1-0.9c0.3 0.6 1 0.9 1.8 0.8 1.1-0.3 1.6-1.4 1.2-2.7l-2.3-8.4 1.4-0.4z"/>
  <path class="st11" d="m297.9 367.1c1.1 3-0.8 4.6-2.5 5.2-1.8 0.7-4.3 0.8-5.4-2.2l-3-7.7 1.3-0.5 2.6 6.8c0.7 1.7 1.5 3.4 4 2.4 2.5-0.9 2-2.7 1.3-4.5l-2.6-6.8 1.3-0.5 3 7.7z"/>
 </g>
 <polygon class="st11" transform="translate(-4.084 -64.435)" points="303.5 355 304.7 354.3 306.9 366.8 305.8 367.4 296.7 358.6 298 357.9 305.2 365.1 305.3 365.1"/>
 <polygon class="st11" transform="translate(-4.084 -64.435)" points="313.8 361.3 318.8 357.7 319.5 358.6 313.3 363 306.3 353.3 312.2 349.1 312.8 349.9 308 353.3 310.4 356.7 313.8 354.2 314.5 355.1 311 357.5"/>
 <polygon class="st11" transform="translate(-4.084 -64.435)" points="321 341 329.3 349.6 328.4 350.6 316.3 347 323.8 354.9 322.9 355.9 314.6 347.2 316.2 345.6 326.6 348.8 320.1 341.9"/>
 <polygon class="st11" transform="translate(-4.084 -64.435)" points="322.5 339.4 327.8 332.6 328.7 333.3 326.4 336.1 335 342.9 334.1 344 325.5 337.2 323.3 340.1"/>
 <g class="st20" transform="translate(-4.084 -64.435)" clip-path="url(#clippath-6)">
  <path class="st11" d="m340.5 327.9c2.8 1.7 2.2 4.1 1.2 5.7s-2.9 3.2-5.7 1.5l-7-4.3 0.7-1.2 6.2 3.8c1.6 1 3.2 1.8 4.6-0.5s0-3.4-1.6-4.3l-6.3-3.9 0.8-1.2 7 4.3z"/>
  <path class="st11" d="m340.9 316c-1.4-0.2-2.7 0-3.4 1.5-0.5 1.1-0.2 2.5 0.8 3 2.7 1.3 4.5-5.1 8.3-3.3 1.9 0.9 2.3 3 1.4 5-1 2.2-3 3.1-5 2.7l0.3-1.4c1.5 0.3 3-0.2 3.8-1.7 0.6-1.3 0.2-2.7-0.9-3.3-3-1.4-4.5 5.1-8.2 3.3-1.8-0.8-2.2-3-1.3-4.9s2.8-2.5 4.6-2.2l-0.2 1.3z"/>
 </g>
 <polygon class="st11" transform="translate(-4.084 -64.435)" points="341.9 304.7 344.5 296.5 345.5 296.9 344.4 300.3 354.8 303.6 354.4 304.9 344 301.6 342.9 305"/>
 <g class="st19" transform="translate(-4.084 -64.435)" clip-path="url(#clippath-7)">
  <path class="st11" d="m355.2 287.5c3.1 0.7 3.4 3.2 2.9 5.1-0.4 1.8-1.7 3.9-4.9 3.2l-8-1.9 0.3-1.4 7.2 1.7c1.8 0.4 3.6 0.7 4.2-1.9 0.7-2.6-1.1-3.2-2.9-3.6l-7.1-1.7 0.3-1.4z"/>
 </g>
 <path class="st11" d="m345.32 213.96 3.3 1.6v1.4l-4.2-2.2 0.3-2 3.9-0.5v1.3zm3.3 1.6 2.6 1.3 0.6-3.6-3.2 0.4v-1.3l8.6-1.2-0.2 1.5-4 0.5-0.7 4.3 3.6 1.8-0.2 1.4-6.9-3.6v-1.4z"/>
 <g class="st22" transform="translate(-4.084 -64.435)" clip-path="url(#clippath-8)">
  <path class="st9" d="m77.3 431.1c46.7 47.5 93.7 53.7 116.7 92.1 24-39.2 63-41.3 116-94.4-30.1-15.7-46.9-43.3-47.8-45.1-1.9-1-4.7-2-6.5-2.5 0 1.9 2.9 6.1 5.7 8.7-3.8 4.9 2.7 8.1-3.6 12.9 1.1-4.9-3.7-10.5-5.7-9.1-3.4-5.6-4.2-15.8-6.9-14.3-2.2 10.6-7.2 9-11.3 14-1.4 1.4-6.4 7.2-8.9 9.7-2.2-7.5-4-13-6-18.5-19.4-2.8-35.8-2.4-51.4 0-1.2 3-4.9 13.4-6.2 19.2-4.5-2.2-10.2-10.4-12.1-13.6-5.5-3.2-6.3-6.1-7.5-10.8-2.8-1.5-3.3 8.7-6.9 14.3-1.5-1.3-6.7 3.4-5.7 9.1-6.3-4.8 0.2-8.3-3.6-12.9 1.9-1.9 5.5-5.9 5.7-8.7-1.7 0.4-4.7 1.4-6.5 2.4-0.4 0.1-0.7 0.2-0.9 0.4-1.1 0.9-2.3 4.1-3.7 4.6-3.3 6.2-21.8 32.2-43 42.3"/>
  <path class="st5" d="m77.3 431.1c46.7 47.5 93.7 53.7 116.7 92.1 24-39.2 63-41.3 116-94.4-30.1-15.7-46.9-43.3-47.8-45.1-1.9-1-4.7-2-6.5-2.5 0 1.9 2.9 6.1 5.7 8.7-3.8 4.9 2.7 8.1-3.6 12.9 1.1-4.9-3.7-10.5-5.7-9.1-3.4-5.6-4.2-15.8-6.9-14.3-2.2 10.6-7.2 9-11.3 14-1.4 1.4-6.4 7.2-8.9 9.7-2.2-7.5-4-13-6-18.5-19.4-2.8-35.8-2.4-51.4 0-1.2 3-4.9 13.4-6.2 19.2-4.5-2.2-10.2-10.4-12.1-13.6-5.5-3.2-6.3-6.1-7.5-10.8-2.8-1.5-3.3 8.7-6.9 14.3-1.5-1.3-6.7 3.4-5.7 9.1-6.3-4.8 0.2-8.3-3.6-12.9 1.9-1.9 5.5-5.9 5.7-8.7-1.7 0.4-4.7 1.4-6.5 2.4-0.4 0.1-0.7 0.2-0.9 0.4-1.1 0.9-2.3 4.1-3.7 4.6-3.3 6.2-21.8 32.2-43 42.3z"/>
  <path class="st9" d="m176.9 363.7s10.2-21.3 16.9-21.3 16.3 21.2 16.3 21.2c-10.2-1-23.6-0.8-33.2 0.1"/>
  <path class="st5" d="m176.9 363.7s10.2-21.3 16.9-21.3 16.3 21.2 16.3 21.2c-10.2-1-23.6-0.8-33.2 0.1z"/>
  <path class="st24" d="m168.6 496.1c4.6 3.3 11.1 8.9 14.4 12.5 13.1-35.8 87.8-44.9 95.2-104.4-14.6 36.4-97.4 56.2-109.6 91.8"/>
  <path class="st3" d="m168.6 496.1c4.6 3.3 11.1 8.9 14.4 12.5 13.1-35.8 87.8-44.9 95.2-104.4-14.6 36.4-97.4 56.2-109.6 91.8z"/>
  <path class="st11" d="m181.2 489.5c-1.2-0.4-2.3-0.6-3.1 0.6-0.6 0.8-0.5 2 0.3 2.6 2.2 1.6 4.5-3.3 7.5-1.1 1.5 1.1 1.6 3 0.5 4.5-1.2 1.6-3 2-4.7 1.2l0.5-1c1.2 0.5 2.7 0.4 3.5-0.7 0.7-0.9 0.6-2.2-0.3-2.9-2.4-1.8-4.6 3.3-7.5 1.1-1.4-1-1.5-2.9-0.5-4.3s2.7-1.6 4.2-1z"/>
  <path class="st11" d="m189.6 481.4c-1.1-0.7-2.3-1.3-3.5-0.2-1.1 1-1.2 3 1.1 5.3 2.2 2.4 4.1 2.5 5.2 1.5 1-1 0.7-2.4 0-3.5l0.9-0.6c1 1.5 1.1 3.4-0.3 4.7-1.7 1.6-4.4 1.2-6.8-1.4s-2.5-5.3-0.8-6.8c1.5-1.3 3.2-1 4.7 0l-0.6 0.9z"/>
 </g>
 <polygon class="st11" transform="translate(-4.084 -64.435)" points="191.4 475.8 192.3 475.1 198.8 483.6 197.9 484.3"/>
 <polygon class="st11" transform="translate(-4.084 -64.435)" points="201.7 480.3 206 477.3 206.6 478.1 201.4 481.7 195.3 472.8 200.2 469.5 200.8 470.3 196.8 473 198.8 476 201.7 474.1 202.3 474.9 199.4 476.8"/>
 <polygon class="st11" transform="translate(-4.084 -64.435)" points="208.7 464.1 209.7 463.5 215.4 472.6 214.4 473.2 204.9 467.6 204.9 467.6 210 475.9 209.1 476.5 203.4 467.4 204.9 466.4 213.1 471.3 213.2 471.2"/>
 <polygon class="st11" transform="translate(-4.084 -64.435)" points="211.9 462.1 218 458.4 218.5 459.2 215.9 460.8 221.1 469.1 220.1 469.7 215 461.4 212.4 462.9"/>
 <polygon class="st11" transform="translate(-4.084 -64.435)" points="220.1 457.1 221.1 456.5 226.7 465.6 225.7 466.2"/>
 <path class="st11" d="m222.42 389.46 1.8 5.5 0.3-0.2v1.1 0.3 3.8l-3.2-10.7 1.4-0.9 1.8 1.6v1.4l-2.2-1.9zm2.2 10.5 1-0.6-1-3.2zm0-5.2 2.2-1.4-2.2-2v-1.4l6.7 5.7-1 0.7-2.7-2.3-3 1.9v-1.1z"/>
 <polygon class="st11" transform="translate(-4.084 -64.435)" points="237.7 457.3 241.8 454.3 242.4 455.1 237.2 458.8 231 450.1 235.9 446.6 236.4 447.3 232.5 450.1 234.7 453.1 237.4 451.1 238 451.9 235.2 453.9"/>
 <g class="st21" transform="translate(-4.084 -64.435)" clip-path="url(#clippath-9)">
  <path class="st10" d="m131.5 472.9c6.2 3.7 13.5 8 19.3 11.5 4.9-25.2 69.7-53 74.2-81.2-3.9 9.2-70.3 24.4-93.5 69.7"/>
  <path class="st2" d="m131.5 472.9c6.2 3.7 13.5 8 19.3 11.5 4.9-25.2 69.7-53 74.2-81.2-3.9 9.2-70.3 24.4-93.5 69.7z"/>
 </g>
 <polygon class="st11" transform="translate(-4.084 -64.435)" points="150.5 474.1 153.1 470.1 153.9 470.7 150.7 475.6 141.7 469.7 142.4 468.7"/>
 <polygon class="st11" transform="translate(-4.084 -64.435)" points="147.6 461.6 148.4 460.7 156.5 467.7 155.7 468.6"/>
 <polygon class="st11" transform="translate(-4.084 -64.435)" points="150.6 458.2 155.7 453.2 156.4 453.9 154.2 456 161.1 463 160.3 463.8 153.4 456.8 151.3 458.9"/>
 <polygon class="st11" transform="translate(-4.084 -64.435)" points="157.6 451.5 162.9 446.8 163.6 447.6 161.3 449.5 167.8 456.9 166.9 457.7 160.4 450.2 158.2 452.2"/>
 <polygon class="st11" transform="translate(-4.084 -64.435)" points="172.2 451.8 176.2 448.6 176.9 449.4 171.9 453.3 165.2 445 169.8 441.2 170.4 442 166.7 445 169 447.9 171.6 445.7 172.3 446.4 169.6 448.6"/>
 <g class="st14" transform="translate(-4.084 -64.435)" clip-path="url(#clippath-10)">
  <path class="st11" d="m176.5 442.2v2l-4-5.1 2-1.6c0.8-0.6 1.5-1 2-1.1v1c-0.4 0.1-0.8 0.4-1.1 0.7l-1.4 1.1 2.5 3.1zm0.1-0.1 1.2-0.9c1.8-1.4 1.5-2.5 0.9-3.3-0.6-0.7-1.3-0.9-2.1-0.7v-1c1.5-0.5 2.4 0.3 3 1 0.8 1 0.8 2.3 0 3.4l4.7 2.6-1 0.8-4.6-2.5-1.7 1.4 3 3.8-0.9 0.7-2.6-3.3v-2z"/>
 </g>
 <path class="st11" d="m178.72 367.46 2.4 5.3v3l-3.4-8.3 1.3-1 2.2 1.5v1.3l-2.3-1.7zm2.3 5.2 2.3-1.8-2.3-1.7v-1.3l7 4.9-0.9 0.7-2.9-2.1-2.8 2.2 1.4 3.3-0.9 0.8-0.8-2.1v-3z"/>
 <polygon class="st11" transform="translate(-4.084 -64.435)" points="194.2 434.2 198.1 430.9 198.8 431.6 194 435.7 187 427.5 191.6 423.6 192.2 424.3 188.6 427.5 190.9 430.2 193.5 428 194.2 428.8 191.5 431"/>
 <g class="st13" transform="translate(-4.084 -64.435)" clip-path="url(#clippath-11)">
  <path class="st24" d="m96 447.8c22.7-36.2 56.4-32.4 65.4-43.6-5.4 29.6-43.3 39.5-47.1 57.4-8.5-6-13.6-9.7-18.3-13.7"/>
  <path class="st3" d="m96 447.8c22.7-36.2 56.4-32.4 65.4-43.6-5.4 29.6-43.3 39.5-47.1 57.4-8.5-6-13.6-9.7-18.3-13.7z"/>
  <path class="st11" d="m114.7 447.5c2.1 1.5 1.7 3 1 4-0.6 0.8-1.6 1.3-2.6 1l0.2-1.2c0.5 0.3 1.2 0 1.5-0.4 0.5-0.8 0.2-1.8-0.8-2.4l-6.5-4.4 0.7-1z"/>
  <path class="st11" d="m121.8 439.6c1.9 2.1 1 3.9-0.1 5-1.2 1.1-3.1 1.9-5-0.2l-5-5.4 0.8-0.8 4.5 4.8c1.1 1.2 2.3 2.3 3.9 0.8s0.6-2.8-0.5-4l-4.5-4.8 0.8-0.8 5 5.4z"/>
  <path class="st11" d="m126.6 430.4c-1-0.7-2-1.2-3.2-0.4-0.8 0.6-1.1 1.8-0.5 2.6 1.6 2.2 5.3-1.9 7.6 1.1 1.1 1.5 0.7 3.3-0.8 4.4-1.6 1.2-3.4 1-4.8-0.2l0.7-0.8c0.9 0.8 2.4 1.1 3.5 0.3 0.9-0.7 1.2-1.9 0.5-2.8-1.7-2.4-5.3 1.8-7.5-1.1-1-1.4-0.6-3.2 0.8-4.2s3-0.7 4.3 0.3l-0.7 0.9z"/>
  <path class="st11" d="m193.6 116.6c5.5 0 11 0.7 16.3 1.7 0.4-2.6 5.9-12.8 13.1-16.6-10.9 0.5-15.1 5.4-15.1 5.4l-2.4-10.3-6.9 10.1-4.9-11.9-4.9 12-6.9-10.1-2.5 10.2s-4.2-4.9-15.2-5.4c7.2 3.8 12.7 14 13.1 16.6 5.3-1.1 10.8-1.6 16.3-1.7"/>
  <path class="st1" d="m193.6 116.6c5.5 0 11 0.7 16.3 1.7 0.4-2.6 5.9-12.8 13.1-16.6-10.9 0.5-15.1 5.4-15.1 5.4l-2.4-10.3-6.9 10.1-4.9-11.9-4.9 12-6.9-10.1-2.5 10.2s-4.2-4.9-15.2-5.4c7.2 3.8 12.7 14 13.1 16.6 5.3-1.1 10.8-1.6 16.3-1.7"/>
  <path class="st11" d="m193.6 295.9c2.2-1.7 3.8-3.7 5.2-6-5.6 8.5 0.8 20.3-4.2 27.1 2.2 1.1 7 1.5 9.6-0.8-5.3 11.3 1.5 12.2-4.2 22 2.7 1.4 6.1-0.7 6.1-0.7s0.8 11.3-1.5 15c10.6 0.3 14.8-10.1 15.4-11.5 2.5 4.4-5.8 22.6-5.8 22.6s10-0.3 14.8-16.5c3 5 11.4 21.3 12.8 30 0.8 1.4-8.7 11.7-11.7 12.9-5.3 2.4-2.3 9-2.3 9s2.5-6.7 6-5.5c4.1-4.8 9.3-3.6 11.4-14 2.8-1.5 3.5 9.1 6.9 14.3 1.4-1.3 6.8 3.4 5.7 9.1 6.3-4.8-0.2-8.2 3.6-12.9-5.8-5.8-5.7-8.7-5.7-8.7s3.7 0.9 6.5 2.4c2.3 0.2 3 6.6 6.4 4.9 5.6 1.7 5.7 7.3 5.7 7.3s4-7.8-1.3-8.1c5.2-8.2-13.9-8.1-7.3-8-2.4-2.6-5.5-2.4-9-3.5s-6.2-0.8-10-9.4-8.5-20.9-8.5-20.9l-0.2-4.2s7.7 12.1 25.4 7.6c-7.8-2.5-10.5-9-10.5-9s5 0.5 7.2-2.1c-12.5-11.5-10.5-14.7-10.5-14.7s3.9-0.6 6.6-3c-8.3-1.6-14.1-13.7-14.1-13.7s4.1 0.7 6.9-0.2c-10.2-6.6-14.3-17.8-14.3-17.8s38.2 19.3 67.3-1.3c-47.3 8.4-57-5.2-57-5.2s1.1-0.7 1.8-1.4c11.7 5.7 27 6.7 36.8 4.5 5.6-1.3-22.3 2.1-35.3-6.1 0.7-0.9 1.5-2.1 1.7-2.6 6.3 7.3 59.2 8 73.4-10-26.1 13-65.1 6.5-65.6 4.2 1-0.9 0.8-0.6 2-1.8 8.4 4.1 31.5 2.5 38 0.5 4.9-1.5-25.7 3-36.6-2 0.7-0.8 1.2-1.5 1.7-2.2 30.8 5.6 81.7-12.5 81.7-24.5-30.3 18-69.8 21.6-79 18.3 0.5-2.7 0.5-3.1 0.6-4.1 5.3 0.6 32.4 1.6 48.4-6.7 9.3-3.3-18.7 8.3-47.7 5.6 0.7-1.4 1.5-2.3 2.3-4 16.7 4.5 85.7-11.3 86.4-37.6-32.8 30.7-86.9 29.8-86.9 29.8l1.7-3.4c12.8-1.3 51.6-7.3 58.6-14.6-0.1-1.3-12 8-58.1 13 0.5-1.1 1-3.6 1-3.6s86.7-11.9 85.1-42.1c-21.7 27.9-84.7 32.8-84.7 32.8s-0.3-2.1-0.5-3c16.3-2.3 43.5-6.9 59.8-16.7 2.4-2.7-24 11.8-59.4 14.8 0.2-1.9 0.3-2.8 0.2-3.7 0 0.9 82.5-9.4 88.2-48.2-19.8 29.6-89.5 40.4-89.5 40.4s-0.9-2.4-1.4-3.6c0.8-0.2 43.9-4.6 64.8-20.5-30.5 15.1-65.6 18.8-65.8 18.4-0.4-0.6-0.5-0.9-0.9-1.6-1.3-4.1 86.8-10.2 92.1-57.7-24.3 34.9-74.8 36-77.7 35.6-38.3-5.6-29.7 17.4-30.4 19.1 0.8 28.1-16.6 27.2-22.4 19.7 0.8 0 0.9 0 3-0.6-7.2-7.2-13.4-20.3-13.4-20.3s2.7 0.3 3.8 0.6c-6.5-7.9-9-21.3-9-21.3s2.3 1.3 5.3 1.7c-13.4-25.7-14.9-37.3-15.1-41.4 0.2-3.2 3.7-1.9 8.9-9.1-6.7 2.5-18.3 1.6-19.5 1.5 0 0-8.2-0.6-11.7-1.5-3.7-0.8-7.7 0.9-7.2 3.5 0.5 0.7-0.7 2-0.7 2s-6.8-2.5-14.4-0.3c-1.8 1.3 0 5.2-2 8.4 0.2-1.7 5.1-4.9 7.1-2.2 2.2 3.2 10.4 1.5 11.4 5.7-0.2 3.4 4 10.8-8.1 33.4 3-0.5 5.3-1.8 5.3-1.8s-2.6 13.4-9 21.3c1.2-0.2 3.8-0.6 3.8-0.6s-6.2 13.1-13.4 20.3c2.2 0.7 2.2 0.5 3 0.6-5.8 7.4-23.1 8.4-22.4-19.7-0.8-1.7 7.9-24.7-30.4-19.1-2.9 0.3-53.3-0.7-77.6-35.6 5.4 47.5 93.5 53.6 92.1 57.7-0.4 0.7-0.6 1-0.9 1.6-0.2 0.4-35.3-3.3-65.8-18.4 20.9 15.9 64 20.3 64.8 20.5-0.5 1.2-1.4 3.6-1.4 3.6s-69.7-10.7-89.5-40.4c5.7 38.7 88.2 49 88.2 48.2 0 1 0 1.8 0.2 3.7-35.5-3-61.8-17.5-59.4-14.8 16.3 9.8 43.5 14.4 59.8 16.7-0.2 0.9-0.5 3-0.5 3s-63-4.9-84.7-32.8c-1.6 30.2 85.1 42.1 85.1 42.1s0.5 2.5 1 3.6c-46-5-57.9-14.3-58.1-13 7 7.3 45.8 13.3 58.6 14.6 0.8 1.8 1.7 3.4 1.7 3.4s-54.1 0.9-86.9-29.8c0.7 26.3 69.7 42.1 86.4 37.6 0.8 1.7 1.5 2.6 2.3 4-29 2.7-57-8.9-47.7-5.6 16 8.3 43.1 7.3 48.4 6.7 0 1 0.1 1.4 0.6 4.1-9.2 3.3-48.6-0.4-79-18.3 0 12.1 51 30.1 81.7 24.5 0.5 0.7 1 1.4 1.7 2.2-11 5.1-41.6 0.6-36.6 2 6.6 2 29.6 3.6 38-0.5 1.2 1.2 1 0.9 2 1.8-0.5 2.3-39.5 8.8-65.6-4.2 14.2 18 67.1 17.3 73.4 10 0.2 0.6 1 1.7 1.7 2.6-13 8.2-40.9 4.8-35.3 6.1 9.8 2.2 25.1 1.2 36.8-4.5 0.7 0.7 1.8 1.4 1.8 1.4s-9.7 13.5-57 5.2c29.1 20.5 67.3 1.3 67.3 1.3s-4.1 11.2-14.3 17.8c2.9 0.9 6.9 0.2 6.9 0.2s-5.8 12-14.1 13.7c2.7 2.4 6.6 3 6.6 3s2 3.2-10.5 14.7c2.2 2.6 7.2 2.1 7.2 2.1s-2.8 6.4-10.6 9c17.6 4.5 25.4-7.6 25.4-7.6l-0.2 4.2s-4.7 12.3-8.5 20.9-6.6 8.3-10 9.4c-3.5 1.1-6.6 0.9-9 3.5 6.7 0-12.5-0.2-7.3 8-5.3 0.2-1.3 8.1-1.3 8.1s0.1-5.6 5.7-7.3c3.4 1.7 4.2-4.7 6.4-4.9 2.8-1.5 6.5-2.4 6.5-2.4s0 2.9-5.7 8.7c3.8 4.7-2.7 8.1 3.6 12.9-1-5.7 4.3-10.4 5.7-9.1 3.4-5.2 4.1-15.8 6.9-14.3 2.1 10.4 7.3 9.2 11.4 14 3.5-1.2 6 5.5 6 5.5s3-6.5-2.3-9c-3-1.2-12.5-11.5-11.7-12.9 1.4-8.7 9.8-25 12.8-30 4.8 16.2 14.8 16.5 14.8 16.5s-8.3-18.2-5.8-22.6c0.6 1.4 4.8 11.8 15.4 11.5-2.3-3.6-1.5-15-1.5-15s3.4 2 6.1 0.7c-5.7-9.7 1.1-10.7-4.2-22 2.5 2.3 7.4 1.9 9.6 0.8-5-6.8 1.4-18.6-4.2-27.1 1.4 2.3 3 4.3 5.2 6"/>
  <path class="st4" d="m193.6 295.9c2.2-1.7 3.8-3.7 5.2-6-5.6 8.5 0.8 20.3-4.2 27.1 2.2 1.1 7 1.5 9.6-0.8-5.3 11.3 1.5 12.2-4.2 22 2.7 1.4 6.1-0.7 6.1-0.7s0.8 11.3-1.5 15c10.6 0.3 14.8-10.1 15.4-11.5 2.5 4.4-5.8 22.6-5.8 22.6s10-0.3 14.8-16.5c3 5 11.4 21.3 12.8 30 0.8 1.4-8.7 11.7-11.7 12.9-5.3 2.4-2.3 9-2.3 9s2.5-6.7 6-5.5c4.1-4.8 9.3-3.6 11.4-14 2.8-1.5 3.5 9.1 6.9 14.3 1.4-1.3 6.8 3.4 5.7 9.1 6.3-4.8-0.2-8.2 3.6-12.9-5.8-5.8-5.7-8.7-5.7-8.7s3.7 0.9 6.5 2.4c2.3 0.2 3 6.6 6.4 4.9 5.6 1.7 5.7 7.3 5.7 7.3s4-7.8-1.3-8.1c5.2-8.2-13.9-8.1-7.3-8-2.4-2.6-5.5-2.4-9-3.5s-6.2-0.8-10-9.4-8.5-20.9-8.5-20.9l-0.2-4.2s7.7 12.1 25.4 7.6c-7.8-2.5-10.5-9-10.5-9s5 0.5 7.2-2.1c-12.5-11.5-10.5-14.7-10.5-14.7s3.9-0.6 6.6-3c-8.3-1.6-14.1-13.7-14.1-13.7s4.1 0.7 6.9-0.2c-10.2-6.6-14.3-17.8-14.3-17.8s38.2 19.3 67.3-1.3c-47.3 8.4-57-5.2-57-5.2s1.1-0.7 1.8-1.4c11.7 5.7 27 6.7 36.8 4.5 5.6-1.3-22.3 2.1-35.3-6.1 0.7-0.9 1.5-2.1 1.7-2.6 6.3 7.3 59.2 8 73.4-10-26.1 13-65.1 6.5-65.6 4.2 1-0.9 0.8-0.6 2-1.8 8.4 4.1 31.5 2.5 38 0.5 4.9-1.5-25.7 3-36.6-2 0.7-0.8 1.2-1.5 1.7-2.2 30.8 5.6 81.7-12.5 81.7-24.5-30.3 18-69.8 21.6-79 18.3 0.5-2.7 0.5-3.1 0.6-4.1 5.3 0.6 32.4 1.6 48.4-6.7 9.3-3.3-18.7 8.3-47.7 5.6 0.7-1.4 1.5-2.3 2.3-4 16.7 4.5 85.7-11.3 86.4-37.6-32.8 30.7-86.9 29.8-86.9 29.8l1.7-3.4c12.8-1.3 51.6-7.3 58.6-14.6-0.1-1.3-12 8-58.1 13 0.5-1.1 1-3.6 1-3.6s86.7-11.9 85.1-42.1c-21.7 27.9-84.7 32.8-84.7 32.8s-0.3-2.1-0.5-3c16.3-2.3 43.5-6.9 59.8-16.7 2.4-2.7-24 11.8-59.4 14.8 0.2-1.9 0.3-2.8 0.2-3.7 0 0.9 82.5-9.4 88.2-48.2-19.8 29.6-89.5 40.4-89.5 40.4s-0.9-2.4-1.4-3.6c0.8-0.2 43.9-4.6 64.8-20.5-30.5 15.1-65.6 18.8-65.8 18.4-0.4-0.6-0.5-0.9-0.9-1.6-1.3-4.1 86.8-10.2 92.1-57.7-24.3 34.9-74.8 36-77.7 35.6-38.3-5.6-29.7 17.4-30.4 19.1 0.8 28.1-16.6 27.2-22.4 19.7 0.8 0 0.9 0 3-0.6-7.2-7.2-13.4-20.3-13.4-20.3s2.7 0.3 3.8 0.6c-6.5-7.9-9-21.3-9-21.3s2.3 1.3 5.3 1.7c-13.4-25.7-14.9-37.3-15.1-41.4 0.2-3.2 3.7-1.9 8.9-9.1-6.7 2.5-18.3 1.6-19.5 1.5 0 0-8.2-0.6-11.7-1.5-3.7-0.8-7.7 0.9-7.2 3.5 0.5 0.7-0.7 2-0.7 2s-6.8-2.5-14.4-0.3c-1.8 1.3 0 5.2-2 8.4 0.2-1.7 5.1-4.9 7.1-2.2 2.2 3.2 10.4 1.5 11.4 5.7-0.2 3.4 4 10.8-8.1 33.4 3-0.5 5.3-1.8 5.3-1.8s-2.6 13.4-9 21.3c1.2-0.2 3.8-0.6 3.8-0.6s-6.2 13.1-13.4 20.3c2.2 0.7 2.2 0.5 3 0.6-5.8 7.4-23.1 8.4-22.4-19.7-0.8-1.7 7.9-24.7-30.4-19.1-2.9 0.3-53.3-0.7-77.6-35.6 5.4 47.5 93.5 53.6 92.1 57.7-0.4 0.7-0.6 1-0.9 1.6-0.2 0.4-35.3-3.3-65.8-18.4 20.9 15.9 64 20.3 64.8 20.5-0.5 1.2-1.4 3.6-1.4 3.6s-69.7-10.7-89.5-40.4c5.7 38.7 88.2 49 88.2 48.2 0 1 0 1.8 0.2 3.7-35.5-3-61.8-17.5-59.4-14.8 16.3 9.8 43.5 14.4 59.8 16.7-0.2 0.9-0.5 3-0.5 3s-63-4.9-84.7-32.8c-1.6 30.2 85.1 42.1 85.1 42.1s0.5 2.5 1 3.6c-46-5-57.9-14.3-58.1-13 7 7.3 45.8 13.3 58.6 14.6 0.8 1.8 1.7 3.4 1.7 3.4s-54.1 0.9-86.9-29.8c0.7 26.3 69.7 42.1 86.4 37.6 0.8 1.7 1.5 2.6 2.3 4-29 2.7-57-8.9-47.7-5.6 16 8.3 43.1 7.3 48.4 6.7 0 1 0.1 1.4 0.6 4.1-9.2 3.3-48.6-0.4-79-18.3 0 12.1 51 30.1 81.7 24.5 0.5 0.7 1 1.4 1.7 2.2-11 5.1-41.6 0.6-36.6 2 6.6 2 29.6 3.6 38-0.5 1.2 1.2 1 0.9 2 1.8-0.5 2.3-39.5 8.8-65.6-4.2 14.2 18 67.1 17.3 73.4 10 0.2 0.6 1 1.7 1.7 2.6-13 8.2-40.9 4.8-35.3 6.1 9.8 2.2 25.1 1.2 36.8-4.5 0.7 0.7 1.8 1.4 1.8 1.4s-9.7 13.5-57 5.2c29.1 20.5 67.3 1.3 67.3 1.3s-4.1 11.2-14.3 17.8c2.9 0.9 6.9 0.2 6.9 0.2s-5.8 12-14.1 13.7c2.7 2.4 6.6 3 6.6 3s2 3.2-10.5 14.7c2.2 2.6 7.2 2.1 7.2 2.1s-2.8 6.4-10.6 9c17.6 4.5 25.4-7.6 25.4-7.6l-0.2 4.2s-4.7 12.3-8.5 20.9-6.6 8.3-10 9.4c-3.5 1.1-6.6 0.9-9 3.5 6.7 0-12.5-0.2-7.3 8-5.3 0.2-1.3 8.1-1.3 8.1s0.1-5.6 5.7-7.3c3.4 1.7 4.2-4.7 6.4-4.9 2.8-1.5 6.5-2.4 6.5-2.4s0 2.9-5.7 8.7c3.8 4.7-2.7 8.1 3.6 12.9-1-5.7 4.3-10.4 5.7-9.1 3.4-5.2 4.1-15.8 6.9-14.3 2.1 10.4 7.3 9.2 11.4 14 3.5-1.2 6 5.5 6 5.5s3-6.5-2.3-9c-3-1.2-12.5-11.5-11.7-12.9 1.4-8.7 9.8-25 12.8-30 4.8 16.2 14.8 16.5 14.8 16.5s-8.3-18.2-5.8-22.6c0.6 1.4 4.8 11.8 15.4 11.5-2.3-3.6-1.5-15-1.5-15s3.4 2 6.1 0.7c-5.7-9.7 1.1-10.7-4.2-22 2.5 2.3 7.4 1.9 9.6 0.8-5-6.8 1.4-18.6-4.2-27.1 1.4 2.3 3 4.3 5.2 6z"/>
  <path class="st6" d="m165.3 139.6c1.6-3.1 12.9 3 19.9 2m-9.8-10c3.6 0 10.8-1.9 11.3 2.9 0 1.9-2.2 3.1-4.4 1.5s-1.3-4.3-6.9-4.3zm12.6 5c-0.8 4.2 5.6 5.1 5.6 5.1m-27.9 189.6c-0.5 3.6 0.8 7.8 1.4 9.7m17-61.5c1.5 5.1 3.2 8.6 4.3 10.4"/>
  <path class="st7" d="m161.7 283.8c-4.1 1.5-19.1 5.1-25.1-8"/>
  <path class="st6" d="m173.2 176.2c1.8-0.9 8.4-5 11.3-15.1 3.6 16.6 9.1 15 9.1 16.3 0 13.3-17.8 18.6-25.6 19.5m0.6 19.1c0 17.4 10.8 25.7 10.8 25.7s14.2-7.6 14.2-25.1c-1.1-0.4-12.6 0.6-12.6-23.4m-12.4 22.8c0 0.9 1.1 19.6-16.6 21.6-0.6-8.2 5.7-19.8 5.7-19.8 1.8 0.2 23.3 1.2 23.3-24.6m-21.2 41.9c0 27.1 9.4 26.9 9.4 26.9s7.9-1.9 9.8-20.2c0 0 3.4 19.6 14.5 22.4-1.8 8-9.2 16.6-15.6 19.4-7.1-5.6-8.8-21.6-8.8-21.6m-14.1-24.9c-2.9 21.2 12.7 30.4 6.7 46.7 9.3-1.4 7.5-21.9 7.5-21.9m-6.8 19.3c-13.4-3.3-22-8-22.7-10.1-1.1-4.4 19-3.2 21.6-4.4-8.8 0.4-28.1-9.1-26.6-13.6 0.7-2.1 17.8 1.7 21.6 0-3.8-1.2-20.3-6.3-20.8-12.3-0.3-3.2 11.7-0.9 19.6-3.7-23 5.5-40.7-17.6-35.6-36.1-20.3 35.4 32.4 50.9 36.8 52.1m-40.9-31.3c-6.2 25 26.5 49.6 45.8 45m-42.8-24.3c-6.2 3.8 8 24.4 21.8 27m22.2 11.7c-8.8 1.4-40.2-4.3-41.3-25.9m42.4 42.1c2-9.4 8-16.3 14.5-13.9 9.6 3.5 3.5 23.4-13.2 32.2-2.3-6-2.5-12.7-1.4-18.3zm-18.4 9.7c4.6-0.5 14.5-4.2 18.6-11m-26.1 27.8c3.2 0.5 20.1 1.3 25.3-16.7m-28.6 33.4c12.5-0.9 18.5-9.1 19.7-10.3m27.1 7.2c-4.5-2.1-12-9.2-10.4-25.6m12.3 4.3c-1.7-1.4-5.6-6.6-6.3-10.5m-24.2-16.6c3.8-6.9 13.2-2.8 19.5-5.2m-17.1 35.5c-4.5 9.2 2.8 19.3 2.8 19.3s12.1-7.3 12.9-19.3"/>
  <path class="st7" d="m154 330.3c-6.3 6.8-5.7 18.4-3.9 23.8 6.3-3.6 14.8-13.5 15.7-22.8"/>
  <path class="st6" d="m221.4 331.3c0.5 3.6-0.7 7.8-1.4 9.7m-16.9-61.5c-1.5 5.1-3.2 8.6-4.3 10.4"/>
  <path class="st7" d="m225.5 283.8c4.1 1.5 19.1 5.1 25.1-8"/>
  <path class="st6" d="m214 176.2c-1.8-0.9-8.4-5-11.3-15.1-3.6 16.6-9.1 15-9.1 16.3 0 13.3 17.8 18.6 25.6 19.5m-0.6 19.1c0 17.4-10.8 25.7-10.8 25.7s-14.2-7.6-14.2-25.1c1.1-0.4 12.6 0.6 12.6-23.4m12.4 22.8c0 0.9-1.1 19.6 16.6 21.6 0.6-8.2-5.7-19.8-5.7-19.8-1.8 0.2-23.3 1.2-23.3-24.6m21.2 41.9c0 27.1-9.4 26.9-9.4 26.9s-7.9-1.9-9.9-20.2c0 0-3.4 19.6-14.5 22.4 1.8 8 9.2 16.6 15.6 19.4 7.1-5.6 8.8-21.6 8.8-21.6m14.2-24.9c2.9 21.2-12.7 30.4-6.7 46.7-9.3-1.4-7.5-21.9-7.5-21.9m6.8 19.3c13.4-3.3 22-8 22.7-10.1 1.1-4.4-19-3.2-21.6-4.4 8.8 0.4 28.1-9.1 26.6-13.6-0.7-2.1-17.8 1.7-21.6 0 3.8-1.2 20.3-6.3 20.8-12.3 0.3-3.2-11.7-0.9-19.6-3.7 23 5.5 40.7-17.6 35.6-36.1 20.3 35.4-32.4 50.9-36.8 52.1m40.9-31.3c6.2 25-26.5 49.6-45.8 45m42.7-24.3c6.2 3.8-8 24.4-21.8 27m-22.1 11.7c8.8 1.4 40.2-4.3 41.3-25.9m-42.4 42.1c-2-9.4-8-16.3-14.5-13.9-9.6 3.5-3.5 23.4 13.2 32.2 2.3-6 2.5-12.7 1.4-18.3zm18.3 9.7c-4.6-0.5-14.5-4.2-18.6-11m26.2 27.8c-3.2 0.5-20.1 1.3-25.3-16.7m28.6 33.4c-12.5-0.9-18.5-9.1-19.7-10.3m-27.1 7.2c4.5-2.1 12-9.2 10.4-25.6m-12.4 4.3c1.7-1.4 5.6-6.6 6.3-10.5m24.3-16.6c-3.7-6.9-13.2-2.8-19.5-5.2m17.1 35.5c4.5 9.2-2.8 19.3-2.8 19.3s-12.1-7.3-12.9-19.3"/>
  <path class="st7" d="m233.2 330.3c6.3 6.8 5.7 18.4 3.9 23.8-6.3-3.6-14.8-13.5-15.7-22.8"/>
  <path class="st11" d="m819.2 352.1 8.3 23.4h-16.6zm-13.7 38.6 3.4-9.8h20.5l3.4 9.8h6.7l-16.8-45h-7.1l-16.9 45h6.7zm-8.5 0v-5.5h-24.2v-39.5h-6.3v45zm-38.7 0v-5h-6.3v-35h6.3v-5h-19v5h6.3v35h-6.3v5zm-31.3-4.1c2.8-3.3 4.1-8.2 4.1-14.7v-26.2h-6.3v26.7c0 4.4-0.9 7.8-2.7 10.2-1.8 2.3-4.8 3.5-9.1 3.5s-7.3-1.2-9.1-3.5-2.7-5.7-2.7-10.2v-26.7h-6.3v26.2c0 6.6 1.4 11.5 4.2 14.7 2.8 3.3 7.4 4.9 13.9 4.9s11.2-1.6 14-4.9m-69.4-2.5c-2.2-1.4-4-3.4-5.3-6.1s-1.9-6-1.9-9.9 0.6-7.1 1.9-9.8 3.1-4.7 5.3-6.1 4.7-2.1 7.4-2.1 5.2 0.7 7.4 2.1 4 3.4 5.3 6.1 2 5.9 2 9.8-0.1 3.2-0.4 4.7c-0.2 1.5-0.6 2.8-1.1 4l-11.2-10.5-4.3 4.6 12 11.3c-2.6 2.6-5.8 4-9.8 4s-5.1-0.7-7.4-2.1m33.7 5-8.3-7.7c1-1.8 1.8-3.9 2.4-6.1 0.5-2.2 0.8-4.6 0.8-7.1 0-4.5-0.9-8.5-2.6-12s-4.2-6.2-7.3-8.2-6.9-3-11.2-3-8 1-11.2 3c-3.1 2-5.6 4.7-7.3 8.2s-2.6 7.5-2.6 12 0.9 8.6 2.6 12.1 4.2 6.3 7.3 8.3 6.9 3 11.2 3 5.5-0.5 7.9-1.3c2.4-0.9 4.4-2.2 6.2-3.8l7.9 7.3 4.3-4.6zm-67.8-37 8.3 23.4h-16.6zm-13.7 38.6 3.4-9.8h20.5l3.4 9.8h6.7l-16.8-45h-7.1l-16.9 45h6.7zm-14.1-28.9 4.2-10.9c0.2-0.6 0.3-1.1 0.3-1.7 0-1.2-0.4-2.2-1.3-3-0.9-0.9-1.9-1.3-3.1-1.3s-2.2 0.4-3 1.3c-0.9 0.9-1.3 1.9-1.3 3.1s0.3 2 1 2.8 1.6 1.3 2.6 1.4l-3.2 8.3h3.7zm-5.7 28.9v-5.5h-24.2v-39.5h-6.3v45zm-34.9 0v-5.5h-24.2v-39.5h-6.3v45zm-36.7 0v-5.5h-24.2v-14.9h17.8v-5.5h-17.8v-13.7h24.2v-5.5h-30.5v45h30.5zm-68.1-39.6h5.8c2.3 0 4.6 0.2 6.8 0.6s4.1 1.1 5.9 2.3c1.7 1.1 3.1 2.9 4.1 5.1 1 2.3 1.5 5.3 1.5 9.1s-0.5 6.9-1.5 9.2-2.4 4-4.1 5.2c-1.7 1.1-3.7 1.9-5.9 2.3s-4.4 0.6-6.8 0.6h-5.8v-34.3zm5.9 39.6c3.6 0 6.9-0.4 9.9-1.1s5.6-2 7.8-3.7 3.9-4 5.1-6.9 1.8-6.5 1.8-10.8-0.6-7.8-1.8-10.7-2.9-5.2-5.1-6.9-4.8-2.9-7.8-3.7c-3-0.7-6.3-1.1-9.9-1.1h-12.3v45h12.3z"/>
  <path class="st11" d="m835.2 323.4v-5h-6.3v-35h6.3v-5h-19v5h6.3v35h-6.3v5zm-54.7-39.7h5.8c2.3 0 4.6 0.2 6.8 0.6s4.1 1.1 5.9 2.3c1.7 1.1 3.1 2.9 4.1 5.1 1 2.3 1.5 5.3 1.5 9.1s-0.5 6.9-1.5 9.2-2.4 4-4.1 5.2c-1.7 1.1-3.7 1.9-5.9 2.3s-4.4 0.6-6.8 0.6h-5.8v-34.3zm5.9 39.7c3.6 0 6.9-0.4 9.9-1.1s5.6-2 7.8-3.7 3.9-4 5.1-6.9 1.8-6.5 1.8-10.8-0.6-7.8-1.8-10.7-2.9-5.2-5.1-6.9-4.8-2.9-7.8-3.7c-3-0.7-6.3-1.1-9.9-1.1h-12.3v45h12.3zm-25.9-4.1c2.8-3.3 4.1-8.2 4.1-14.7v-26.2h-6.3v26.7c0 4.4-0.9 7.8-2.7 10.2-1.8 2.3-4.8 3.5-9.1 3.5s-7.3-1.2-9.1-3.5-2.7-5.7-2.7-10.2v-26.7h-6.3v26.2c0 6.6 1.4 11.5 4.2 14.7 2.8 3.3 7.4 4.9 13.9 4.9s11.2-1.6 14-4.9m-52.2 4.1v-39.5h14.9v-5.5h-36.2v5.5h14.9v39.5h6.3zm-35-0.1c2.1-0.6 4-1.4 5.6-2.5 1.7-1.1 3-2.5 4-4.1s1.5-3.5 1.5-5.6-0.6-5.2-1.9-6.9-2.9-3-4.9-4c-2-0.9-4.2-1.7-6.5-2.2l-4.9-1.1c-1.7-0.4-3.4-0.9-4.8-1.4-1.5-0.5-2.6-1.2-3.5-2.1s-1.3-2.1-1.3-3.6 0.5-2.9 1.4-3.9 2.2-1.8 3.6-2.3c1.5-0.5 3-0.8 4.6-0.8s4 0.4 6 1.2c1.9 0.8 3.3 2 4.1 3.6l5.8-1.7c-0.9-1.9-2.2-3.5-3.9-4.7-1.6-1.2-3.5-2.2-5.5-2.8s-4.1-0.9-6.2-0.9-5.4 0.5-7.9 1.4-4.6 2.3-6.2 4.1-2.4 4-2.4 6.5 0.6 5 1.9 6.7 2.9 2.9 4.9 3.8 4 1.6 6.1 2.2l5.7 1.3c3.3 0.9 5.7 1.8 7 2.9s2 2.5 2 4.4-0.5 3.3-1.5 4.5-2.3 2.1-3.9 2.7-3.3 0.9-5.1 0.9-3.2-0.2-4.8-0.7-3-1.3-4.2-2.3c-1.2-1.1-2.1-2.4-2.6-4l-5.9 1.7c0.8 2.4 2.1 4.4 3.9 6s3.8 2.7 6.2 3.5c2.3 0.8 4.7 1.1 7.2 1.1s4.3-0.3 6.4-0.9m-47 0.1v-5h-6.3v-35h6.3v-5h-19v5h6.3v35h-6.3v5zm-23.4 0v-5.5h-24.2v-39.5h-6.3v45zm-50.7-0.7c2.5-1 4.5-2.7 5.9-4.9l1.7 5.7h3.6v-23.2h-19.1v5.5h13.1v1.5c0 2.3-0.4 4.3-1.2 5.8s-1.9 2.7-3.2 3.6-2.7 1.5-4.3 1.8c-1.6 0.4-3.1 0.5-4.6 0.5-2.8 0-5.2-0.7-7.4-2.2-2.1-1.4-3.8-3.5-5-6.2s-1.8-5.9-1.8-9.7 0.6-7.2 1.9-9.9 3-4.7 5.1-6 4.5-2 7.2-2 5.4 0.6 7.4 1.9 3.5 2.9 4.5 4.9l5.6-2c-1.6-3.3-3.9-5.8-6.9-7.5s-6.4-2.6-10.2-2.6-7.9 1-11 2.9-5.6 4.6-7.3 8.1-2.6 7.6-2.6 12.2 0.8 8.6 2.4 12.1 3.9 6.2 6.9 8.2 6.7 3 11 3 5.8-0.5 8.3-1.5m-32.6 0.7v-5.5h-24.2v-14.9h17.8v-5.5h-17.8v-13.7h24.2v-5.5h-30.5v45h30.5zm-68.8-39.7h5.8c2.3 0 4.6 0.2 6.8 0.6s4.1 1.1 5.9 2.3c1.7 1.1 3.1 2.9 4.1 5.1 1 2.3 1.5 5.3 1.5 9.1s-0.5 6.9-1.5 9.2-2.4 4-4.1 5.2c-1.7 1.1-3.7 1.9-5.9 2.3s-4.4 0.6-6.8 0.6h-5.8v-34.3zm5.9 39.7c3.6 0 6.9-0.4 9.9-1.1s5.6-2 7.8-3.7 3.9-4 5.1-6.9 1.8-6.5 1.8-10.8-0.6-7.8-1.8-10.7-2.9-5.2-5.1-6.9-4.8-2.9-7.8-3.7c-3-0.7-6.3-1.1-9.9-1.1h-12.3v45h12.3z"/>
  <path d="m822.6 205.9-7.1-7.2c-0.3-0.4-0.6-0.6-1-0.7s-0.7-0.2-1.1-0.2c-0.7 0-1.2 0.2-1.7 0.7s-0.7 1-0.7 1.7 0.4 1.5 1.1 2.2c0.4 0.3 1 0.7 1.8 1.3 0.8 0.5 1.6 1 2.3 1.4s1.1 0.7 1.3 0.8zm-3.4 11.5 8.3 23.4h-16.6zm-13.7 38.6 3.4-9.8h20.5l3.4 9.8h6.7l-16.8-45h-7.1l-16.9 45h6.7zm-20.6 0v-39.5h14.9v-5.5h-36.2v5.5h14.9v39.5h6.3zm-28.4 0v-5h-6.3v-35h6.3v-5h-19v5h6.3v35h-6.3v5zm-39.2-0.1c2.1-0.6 4-1.4 5.6-2.5 1.7-1.1 3-2.5 4-4.1s1.5-3.5 1.5-5.6-0.6-5.2-1.9-6.9-2.9-3-4.9-4c-2-0.9-4.2-1.7-6.5-2.2l-4.9-1.1c-1.7-0.4-3.4-0.9-4.8-1.4-1.5-0.5-2.6-1.2-3.5-2.1s-1.3-2.1-1.3-3.6 0.5-2.9 1.4-3.9 2.2-1.8 3.6-2.3c1.5-0.5 3-0.8 4.6-0.8s4 0.4 6 1.2c1.9 0.8 3.3 2 4.1 3.6l5.8-1.7c-0.9-1.9-2.2-3.5-3.9-4.7-1.6-1.2-3.5-2.2-5.5-2.8s-4.1-0.9-6.2-0.9-5.4 0.5-7.9 1.4-4.6 2.3-6.2 4.1-2.4 4-2.4 6.5 0.6 5 1.9 6.7 2.9 2.9 4.9 3.8 4 1.6 6.1 2.2l5.7 1.3c3.3 0.9 5.7 1.8 7 2.9s2 2.5 2 4.4-0.5 3.3-1.5 4.5-2.3 2.1-3.9 2.7-3.3 0.9-5.1 0.9-3.2-0.2-4.8-0.7-3-1.3-4.2-2.3c-1.2-1.1-2.1-2.4-2.6-4l-5.9 1.7c0.8 2.4 2.1 4.4 3.9 6s3.8 2.7 6.2 3.5c2.3 0.8 4.7 1.1 7.2 1.1s4.3-0.3 6.4-0.9m-58.5-39.6h8.4c2.2 0 4.2 0.2 6 0.5s3.2 1 4.2 2.1c1.1 1.1 1.6 2.8 1.6 5.1s-0.5 4-1.6 5.1-2.5 1.8-4.2 2.1-3.8 0.5-6 0.5h-8.4zm0 39.7v-18.9h6.7l13.7 18.9h7.7l-13.9-19.4c3.5-0.5 6.1-1.3 7.9-2.6 1.8-1.2 3-2.7 3.6-4.4s0.9-3.6 0.9-5.7c0-3.6-0.8-6.3-2.4-8.2s-3.8-3.1-6.6-3.8c-2.8-0.6-6-1-9.7-1h-14.3v45h6.3zm-16 0v-5.5h-24.2v-14.9h17.8v-5.5h-17.8v-13.7h24.2v-5.5h-30.5v45h30.5zm-53.8 0 15.5-45h-6.9l-12.3 37.6-12.2-37.6h-6.9l15.4 45zm-30 0v-5h-6.3v-35h6.3v-5h-19v5h6.3v35h-6.3v5zm-60.3 0v-38.4l20.5 38.4h9.3v-45h-6.3v38.2l-20.5-38.2h-9.4v45h6.3zm-22.8-4.1c2.8-3.3 4.1-8.2 4.1-14.7v-26.2h-6.3v26.7c0 4.4-0.9 7.8-2.7 10.2-1.8 2.3-4.8 3.5-9.1 3.5s-7.3-1.2-9.1-3.5-2.7-5.7-2.7-10.2v-26.7h-6.3v26.2c0 6.6 1.4 11.5 4.2 14.7 2.8 3.3 7.4 4.9 13.9 4.9s11.2-1.6 14-4.9"/>
 </g>
</svg>
